<?xml version="1.0" standalone="no"?>
<!DOCTYPE svg PUBLIC "-//W3C//DTD SVG 20010904//EN"
 "http://www.w3.org/TR/2001/REC-SVG-20010904/DTD/svg10.dtd">
<svg version="1.0" xmlns="http://www.w3.org/2000/svg"
 width="860.000000pt" height="1061.000000pt" viewBox="0 0 860.000000 1061.000000"
 preserveAspectRatio="xMidYMid meet">

<g transform="translate(0.000000,1061.000000) scale(0.100000,-0.100000)"
fill="#000000" stroke="none">
<path d="M2105 10184 c-91 -19 -235 -90 -307 -151 -115 -96 -204 -236 -244
-383 -25 -89 -25 -281 -1 -370 23 -84 74 -193 120 -252 20 -27 797 -876 1727
-1888 l1690 -1840 -1694 -1844 c-932 -1015 -1711 -1867 -1730 -1894 -173 -240
-179 -577 -15 -829 56 -85 181 -201 265 -245 121 -63 202 -83 344 -83 103 0
138 4 200 24 103 32 196 82 266 144 49 44 3756 3821 4094 4172 181 188 244
331 245 550 0 169 -33 284 -120 415 -30 45 -708 743 -2116 2180 -1139 1163
-2092 2131 -2118 2153 -65 54 -212 123 -303 141 -95 20 -210 19 -303 0z"/>
</g>
</svg>
