<svg width="17.000000" height="27.000000" viewBox="0 0 17 27" fill="none" xmlns="http://www.w3.org/2000/svg" xmlns:xlink="http://www.w3.org/1999/xlink">
	<desc>
			Created with Pixso.
	</desc>
	<defs/>
	<path id="Vector" d="M15.54 11.1L4.23 -0.2C3.99 -0.45 3.69 -0.65 3.37 -0.79C3.04 -0.92 2.69 -0.99 2.34 -0.99C1.99 -0.99 1.64 -0.92 1.32 -0.79C0.99 -0.65 0.7 -0.45 0.45 -0.2C-0.05 0.29 -0.33 0.97 -0.33 1.68C-0.33 2.38 -0.05 3.06 0.45 3.56L9.89 13L0.45 22.44C-0.05 22.93 -0.33 23.61 -0.33 24.32C-0.33 25.02 -0.05 25.7 0.45 26.2C0.7 26.44 0.99 26.64 1.32 26.77C1.64 26.9 1.99 26.97 2.34 26.97C2.69 26.97 3.04 26.9 3.37 26.77C3.69 26.64 3.99 26.44 4.23 26.2L15.54 14.89C15.79 14.64 15.99 14.35 16.13 14.02C16.26 13.7 16.33 13.35 16.33 13C16.33 12.64 16.26 12.29 16.13 11.97C15.99 11.64 15.79 11.35 15.54 11.1Z" fill="#10B981" fill-opacity="1.000000" fill-rule="nonzero"/>
</svg>
